G04 EAGLE Gerber RS-274X export*
G75*
%MOMM*%
%FSLAX34Y34*%
%LPD*%
%INBottom Solder Mask*%
%IPPOS*%
%AMOC8*
5,1,8,0,0,1.08239X$1,22.5*%
G01*
%ADD10R,1.854200X1.854200*%
%ADD11C,1.854200*%
%ADD12C,2.303200*%
%ADD13C,2.003200*%
%ADD14C,2.203200*%
%ADD15C,4.303200*%
%ADD16C,1.109600*%
%ADD17C,0.959600*%


D10*
X279400Y292100D03*
D11*
X304800Y292100D03*
X330200Y292100D03*
X330200Y317500D03*
X304800Y317500D03*
X279400Y317500D03*
D10*
X127000Y30480D03*
D11*
X152400Y30480D03*
X177800Y30480D03*
X203200Y30480D03*
X228600Y30480D03*
X254000Y30480D03*
D10*
X30480Y127000D03*
D11*
X30480Y152400D03*
X30480Y177800D03*
X30480Y203200D03*
X30480Y228600D03*
X30480Y254000D03*
X30480Y279400D03*
X30480Y304800D03*
D10*
X30480Y355600D03*
D11*
X30480Y381000D03*
X30480Y406400D03*
D12*
X524200Y53300D03*
X524200Y175300D03*
X644200Y53300D03*
X644200Y175300D03*
X584200Y33300D03*
D13*
X165100Y562500D02*
X165100Y580500D01*
X190500Y580500D02*
X190500Y562500D01*
X317500Y562500D02*
X317500Y580500D01*
X342900Y580500D02*
X342900Y562500D01*
X368300Y562500D02*
X368300Y580500D01*
D14*
X736350Y152189D03*
X736350Y202989D03*
X736350Y253789D03*
D13*
X746650Y330200D02*
X764650Y330200D01*
X764650Y355600D02*
X746650Y355600D01*
X746650Y381000D02*
X764650Y381000D01*
X764650Y406400D02*
X746650Y406400D01*
X746650Y431800D02*
X764650Y431800D01*
X764650Y457200D02*
X746650Y457200D01*
X585470Y562500D02*
X585470Y580500D01*
X610870Y580500D02*
X610870Y562500D01*
D15*
X50800Y558800D03*
X50800Y50800D03*
X736600Y50800D03*
X736600Y558800D03*
D16*
X500380Y436880D03*
D17*
X144780Y138430D03*
X177800Y394970D03*
X155702Y265430D03*
X218440Y198120D03*
X140970Y199390D03*
D16*
X60960Y459740D03*
X431800Y579120D03*
X435610Y299720D03*
X438150Y142240D03*
X683260Y106680D03*
X632460Y297180D03*
X688340Y486410D03*
D17*
X190500Y271780D03*
X171958Y185928D03*
X184912Y177292D03*
X178308Y170688D03*
X196850Y52070D03*
X167640Y204470D03*
X207010Y481330D03*
X213360Y511810D03*
X200660Y488950D03*
X205740Y532130D03*
X292100Y496570D03*
X285750Y481330D03*
X271780Y483870D03*
X185420Y510540D03*
X157480Y389890D03*
X243840Y250190D03*
X242570Y237490D03*
X255270Y224790D03*
X264160Y212090D03*
X429260Y83820D03*
X257810Y185420D03*
D16*
X474980Y217170D03*
X537210Y415290D03*
X391160Y372110D03*
X223520Y372110D03*
X81280Y372110D03*
X81280Y149860D03*
D17*
X224790Y164592D03*
X53340Y167640D03*
X201930Y472440D03*
X201930Y458470D03*
D16*
X443230Y426720D03*
X318770Y535940D03*
X572770Y345440D03*
X601980Y345440D03*
X180340Y149860D03*
X62230Y355600D03*
X129540Y355600D03*
X179070Y355600D03*
D17*
X558800Y330200D03*
X585470Y330200D03*
D16*
X514350Y510540D03*
X549910Y500380D03*
M02*
