G04 EAGLE Gerber RS-274X export*
G75*
%MOMM*%
%FSLAX34Y34*%
%LPD*%
%INMechanical*%
%IPPOS*%
%AMOC8*
5,1,8,0,0,1.08239X$1,22.5*%
G01*
%ADD10C,0.000000*%
%ADD11C,0.254000*%


D10*
X0Y0D02*
X787400Y0D01*
X787400Y609600D01*
X0Y609600D01*
X0Y0D01*
X30300Y558800D02*
X30306Y559303D01*
X30325Y559806D01*
X30356Y560308D01*
X30399Y560809D01*
X30454Y561309D01*
X30522Y561808D01*
X30602Y562305D01*
X30694Y562799D01*
X30798Y563292D01*
X30914Y563781D01*
X31043Y564268D01*
X31183Y564751D01*
X31335Y565230D01*
X31498Y565706D01*
X31674Y566178D01*
X31860Y566645D01*
X32059Y567107D01*
X32268Y567565D01*
X32489Y568017D01*
X32721Y568464D01*
X32963Y568904D01*
X33217Y569339D01*
X33481Y569767D01*
X33755Y570189D01*
X34040Y570604D01*
X34334Y571012D01*
X34639Y571412D01*
X34953Y571805D01*
X35277Y572190D01*
X35611Y572567D01*
X35953Y572936D01*
X36304Y573296D01*
X36664Y573647D01*
X37033Y573989D01*
X37410Y574323D01*
X37795Y574647D01*
X38188Y574961D01*
X38588Y575266D01*
X38996Y575560D01*
X39411Y575845D01*
X39833Y576119D01*
X40261Y576383D01*
X40696Y576637D01*
X41136Y576879D01*
X41583Y577111D01*
X42035Y577332D01*
X42493Y577541D01*
X42955Y577740D01*
X43422Y577926D01*
X43894Y578102D01*
X44370Y578265D01*
X44849Y578417D01*
X45332Y578557D01*
X45819Y578686D01*
X46308Y578802D01*
X46801Y578906D01*
X47295Y578998D01*
X47792Y579078D01*
X48291Y579146D01*
X48791Y579201D01*
X49292Y579244D01*
X49794Y579275D01*
X50297Y579294D01*
X50800Y579300D01*
X51303Y579294D01*
X51806Y579275D01*
X52308Y579244D01*
X52809Y579201D01*
X53309Y579146D01*
X53808Y579078D01*
X54305Y578998D01*
X54799Y578906D01*
X55292Y578802D01*
X55781Y578686D01*
X56268Y578557D01*
X56751Y578417D01*
X57230Y578265D01*
X57706Y578102D01*
X58178Y577926D01*
X58645Y577740D01*
X59107Y577541D01*
X59565Y577332D01*
X60017Y577111D01*
X60464Y576879D01*
X60904Y576637D01*
X61339Y576383D01*
X61767Y576119D01*
X62189Y575845D01*
X62604Y575560D01*
X63012Y575266D01*
X63412Y574961D01*
X63805Y574647D01*
X64190Y574323D01*
X64567Y573989D01*
X64936Y573647D01*
X65296Y573296D01*
X65647Y572936D01*
X65989Y572567D01*
X66323Y572190D01*
X66647Y571805D01*
X66961Y571412D01*
X67266Y571012D01*
X67560Y570604D01*
X67845Y570189D01*
X68119Y569767D01*
X68383Y569339D01*
X68637Y568904D01*
X68879Y568464D01*
X69111Y568017D01*
X69332Y567565D01*
X69541Y567107D01*
X69740Y566645D01*
X69926Y566178D01*
X70102Y565706D01*
X70265Y565230D01*
X70417Y564751D01*
X70557Y564268D01*
X70686Y563781D01*
X70802Y563292D01*
X70906Y562799D01*
X70998Y562305D01*
X71078Y561808D01*
X71146Y561309D01*
X71201Y560809D01*
X71244Y560308D01*
X71275Y559806D01*
X71294Y559303D01*
X71300Y558800D01*
X71294Y558297D01*
X71275Y557794D01*
X71244Y557292D01*
X71201Y556791D01*
X71146Y556291D01*
X71078Y555792D01*
X70998Y555295D01*
X70906Y554801D01*
X70802Y554308D01*
X70686Y553819D01*
X70557Y553332D01*
X70417Y552849D01*
X70265Y552370D01*
X70102Y551894D01*
X69926Y551422D01*
X69740Y550955D01*
X69541Y550493D01*
X69332Y550035D01*
X69111Y549583D01*
X68879Y549136D01*
X68637Y548696D01*
X68383Y548261D01*
X68119Y547833D01*
X67845Y547411D01*
X67560Y546996D01*
X67266Y546588D01*
X66961Y546188D01*
X66647Y545795D01*
X66323Y545410D01*
X65989Y545033D01*
X65647Y544664D01*
X65296Y544304D01*
X64936Y543953D01*
X64567Y543611D01*
X64190Y543277D01*
X63805Y542953D01*
X63412Y542639D01*
X63012Y542334D01*
X62604Y542040D01*
X62189Y541755D01*
X61767Y541481D01*
X61339Y541217D01*
X60904Y540963D01*
X60464Y540721D01*
X60017Y540489D01*
X59565Y540268D01*
X59107Y540059D01*
X58645Y539860D01*
X58178Y539674D01*
X57706Y539498D01*
X57230Y539335D01*
X56751Y539183D01*
X56268Y539043D01*
X55781Y538914D01*
X55292Y538798D01*
X54799Y538694D01*
X54305Y538602D01*
X53808Y538522D01*
X53309Y538454D01*
X52809Y538399D01*
X52308Y538356D01*
X51806Y538325D01*
X51303Y538306D01*
X50800Y538300D01*
X50297Y538306D01*
X49794Y538325D01*
X49292Y538356D01*
X48791Y538399D01*
X48291Y538454D01*
X47792Y538522D01*
X47295Y538602D01*
X46801Y538694D01*
X46308Y538798D01*
X45819Y538914D01*
X45332Y539043D01*
X44849Y539183D01*
X44370Y539335D01*
X43894Y539498D01*
X43422Y539674D01*
X42955Y539860D01*
X42493Y540059D01*
X42035Y540268D01*
X41583Y540489D01*
X41136Y540721D01*
X40696Y540963D01*
X40261Y541217D01*
X39833Y541481D01*
X39411Y541755D01*
X38996Y542040D01*
X38588Y542334D01*
X38188Y542639D01*
X37795Y542953D01*
X37410Y543277D01*
X37033Y543611D01*
X36664Y543953D01*
X36304Y544304D01*
X35953Y544664D01*
X35611Y545033D01*
X35277Y545410D01*
X34953Y545795D01*
X34639Y546188D01*
X34334Y546588D01*
X34040Y546996D01*
X33755Y547411D01*
X33481Y547833D01*
X33217Y548261D01*
X32963Y548696D01*
X32721Y549136D01*
X32489Y549583D01*
X32268Y550035D01*
X32059Y550493D01*
X31860Y550955D01*
X31674Y551422D01*
X31498Y551894D01*
X31335Y552370D01*
X31183Y552849D01*
X31043Y553332D01*
X30914Y553819D01*
X30798Y554308D01*
X30694Y554801D01*
X30602Y555295D01*
X30522Y555792D01*
X30454Y556291D01*
X30399Y556791D01*
X30356Y557292D01*
X30325Y557794D01*
X30306Y558297D01*
X30300Y558800D01*
X30300Y50800D02*
X30306Y51303D01*
X30325Y51806D01*
X30356Y52308D01*
X30399Y52809D01*
X30454Y53309D01*
X30522Y53808D01*
X30602Y54305D01*
X30694Y54799D01*
X30798Y55292D01*
X30914Y55781D01*
X31043Y56268D01*
X31183Y56751D01*
X31335Y57230D01*
X31498Y57706D01*
X31674Y58178D01*
X31860Y58645D01*
X32059Y59107D01*
X32268Y59565D01*
X32489Y60017D01*
X32721Y60464D01*
X32963Y60904D01*
X33217Y61339D01*
X33481Y61767D01*
X33755Y62189D01*
X34040Y62604D01*
X34334Y63012D01*
X34639Y63412D01*
X34953Y63805D01*
X35277Y64190D01*
X35611Y64567D01*
X35953Y64936D01*
X36304Y65296D01*
X36664Y65647D01*
X37033Y65989D01*
X37410Y66323D01*
X37795Y66647D01*
X38188Y66961D01*
X38588Y67266D01*
X38996Y67560D01*
X39411Y67845D01*
X39833Y68119D01*
X40261Y68383D01*
X40696Y68637D01*
X41136Y68879D01*
X41583Y69111D01*
X42035Y69332D01*
X42493Y69541D01*
X42955Y69740D01*
X43422Y69926D01*
X43894Y70102D01*
X44370Y70265D01*
X44849Y70417D01*
X45332Y70557D01*
X45819Y70686D01*
X46308Y70802D01*
X46801Y70906D01*
X47295Y70998D01*
X47792Y71078D01*
X48291Y71146D01*
X48791Y71201D01*
X49292Y71244D01*
X49794Y71275D01*
X50297Y71294D01*
X50800Y71300D01*
X51303Y71294D01*
X51806Y71275D01*
X52308Y71244D01*
X52809Y71201D01*
X53309Y71146D01*
X53808Y71078D01*
X54305Y70998D01*
X54799Y70906D01*
X55292Y70802D01*
X55781Y70686D01*
X56268Y70557D01*
X56751Y70417D01*
X57230Y70265D01*
X57706Y70102D01*
X58178Y69926D01*
X58645Y69740D01*
X59107Y69541D01*
X59565Y69332D01*
X60017Y69111D01*
X60464Y68879D01*
X60904Y68637D01*
X61339Y68383D01*
X61767Y68119D01*
X62189Y67845D01*
X62604Y67560D01*
X63012Y67266D01*
X63412Y66961D01*
X63805Y66647D01*
X64190Y66323D01*
X64567Y65989D01*
X64936Y65647D01*
X65296Y65296D01*
X65647Y64936D01*
X65989Y64567D01*
X66323Y64190D01*
X66647Y63805D01*
X66961Y63412D01*
X67266Y63012D01*
X67560Y62604D01*
X67845Y62189D01*
X68119Y61767D01*
X68383Y61339D01*
X68637Y60904D01*
X68879Y60464D01*
X69111Y60017D01*
X69332Y59565D01*
X69541Y59107D01*
X69740Y58645D01*
X69926Y58178D01*
X70102Y57706D01*
X70265Y57230D01*
X70417Y56751D01*
X70557Y56268D01*
X70686Y55781D01*
X70802Y55292D01*
X70906Y54799D01*
X70998Y54305D01*
X71078Y53808D01*
X71146Y53309D01*
X71201Y52809D01*
X71244Y52308D01*
X71275Y51806D01*
X71294Y51303D01*
X71300Y50800D01*
X71294Y50297D01*
X71275Y49794D01*
X71244Y49292D01*
X71201Y48791D01*
X71146Y48291D01*
X71078Y47792D01*
X70998Y47295D01*
X70906Y46801D01*
X70802Y46308D01*
X70686Y45819D01*
X70557Y45332D01*
X70417Y44849D01*
X70265Y44370D01*
X70102Y43894D01*
X69926Y43422D01*
X69740Y42955D01*
X69541Y42493D01*
X69332Y42035D01*
X69111Y41583D01*
X68879Y41136D01*
X68637Y40696D01*
X68383Y40261D01*
X68119Y39833D01*
X67845Y39411D01*
X67560Y38996D01*
X67266Y38588D01*
X66961Y38188D01*
X66647Y37795D01*
X66323Y37410D01*
X65989Y37033D01*
X65647Y36664D01*
X65296Y36304D01*
X64936Y35953D01*
X64567Y35611D01*
X64190Y35277D01*
X63805Y34953D01*
X63412Y34639D01*
X63012Y34334D01*
X62604Y34040D01*
X62189Y33755D01*
X61767Y33481D01*
X61339Y33217D01*
X60904Y32963D01*
X60464Y32721D01*
X60017Y32489D01*
X59565Y32268D01*
X59107Y32059D01*
X58645Y31860D01*
X58178Y31674D01*
X57706Y31498D01*
X57230Y31335D01*
X56751Y31183D01*
X56268Y31043D01*
X55781Y30914D01*
X55292Y30798D01*
X54799Y30694D01*
X54305Y30602D01*
X53808Y30522D01*
X53309Y30454D01*
X52809Y30399D01*
X52308Y30356D01*
X51806Y30325D01*
X51303Y30306D01*
X50800Y30300D01*
X50297Y30306D01*
X49794Y30325D01*
X49292Y30356D01*
X48791Y30399D01*
X48291Y30454D01*
X47792Y30522D01*
X47295Y30602D01*
X46801Y30694D01*
X46308Y30798D01*
X45819Y30914D01*
X45332Y31043D01*
X44849Y31183D01*
X44370Y31335D01*
X43894Y31498D01*
X43422Y31674D01*
X42955Y31860D01*
X42493Y32059D01*
X42035Y32268D01*
X41583Y32489D01*
X41136Y32721D01*
X40696Y32963D01*
X40261Y33217D01*
X39833Y33481D01*
X39411Y33755D01*
X38996Y34040D01*
X38588Y34334D01*
X38188Y34639D01*
X37795Y34953D01*
X37410Y35277D01*
X37033Y35611D01*
X36664Y35953D01*
X36304Y36304D01*
X35953Y36664D01*
X35611Y37033D01*
X35277Y37410D01*
X34953Y37795D01*
X34639Y38188D01*
X34334Y38588D01*
X34040Y38996D01*
X33755Y39411D01*
X33481Y39833D01*
X33217Y40261D01*
X32963Y40696D01*
X32721Y41136D01*
X32489Y41583D01*
X32268Y42035D01*
X32059Y42493D01*
X31860Y42955D01*
X31674Y43422D01*
X31498Y43894D01*
X31335Y44370D01*
X31183Y44849D01*
X31043Y45332D01*
X30914Y45819D01*
X30798Y46308D01*
X30694Y46801D01*
X30602Y47295D01*
X30522Y47792D01*
X30454Y48291D01*
X30399Y48791D01*
X30356Y49292D01*
X30325Y49794D01*
X30306Y50297D01*
X30300Y50800D01*
X716100Y50800D02*
X716106Y51303D01*
X716125Y51806D01*
X716156Y52308D01*
X716199Y52809D01*
X716254Y53309D01*
X716322Y53808D01*
X716402Y54305D01*
X716494Y54799D01*
X716598Y55292D01*
X716714Y55781D01*
X716843Y56268D01*
X716983Y56751D01*
X717135Y57230D01*
X717298Y57706D01*
X717474Y58178D01*
X717660Y58645D01*
X717859Y59107D01*
X718068Y59565D01*
X718289Y60017D01*
X718521Y60464D01*
X718763Y60904D01*
X719017Y61339D01*
X719281Y61767D01*
X719555Y62189D01*
X719840Y62604D01*
X720134Y63012D01*
X720439Y63412D01*
X720753Y63805D01*
X721077Y64190D01*
X721411Y64567D01*
X721753Y64936D01*
X722104Y65296D01*
X722464Y65647D01*
X722833Y65989D01*
X723210Y66323D01*
X723595Y66647D01*
X723988Y66961D01*
X724388Y67266D01*
X724796Y67560D01*
X725211Y67845D01*
X725633Y68119D01*
X726061Y68383D01*
X726496Y68637D01*
X726936Y68879D01*
X727383Y69111D01*
X727835Y69332D01*
X728293Y69541D01*
X728755Y69740D01*
X729222Y69926D01*
X729694Y70102D01*
X730170Y70265D01*
X730649Y70417D01*
X731132Y70557D01*
X731619Y70686D01*
X732108Y70802D01*
X732601Y70906D01*
X733095Y70998D01*
X733592Y71078D01*
X734091Y71146D01*
X734591Y71201D01*
X735092Y71244D01*
X735594Y71275D01*
X736097Y71294D01*
X736600Y71300D01*
X737103Y71294D01*
X737606Y71275D01*
X738108Y71244D01*
X738609Y71201D01*
X739109Y71146D01*
X739608Y71078D01*
X740105Y70998D01*
X740599Y70906D01*
X741092Y70802D01*
X741581Y70686D01*
X742068Y70557D01*
X742551Y70417D01*
X743030Y70265D01*
X743506Y70102D01*
X743978Y69926D01*
X744445Y69740D01*
X744907Y69541D01*
X745365Y69332D01*
X745817Y69111D01*
X746264Y68879D01*
X746704Y68637D01*
X747139Y68383D01*
X747567Y68119D01*
X747989Y67845D01*
X748404Y67560D01*
X748812Y67266D01*
X749212Y66961D01*
X749605Y66647D01*
X749990Y66323D01*
X750367Y65989D01*
X750736Y65647D01*
X751096Y65296D01*
X751447Y64936D01*
X751789Y64567D01*
X752123Y64190D01*
X752447Y63805D01*
X752761Y63412D01*
X753066Y63012D01*
X753360Y62604D01*
X753645Y62189D01*
X753919Y61767D01*
X754183Y61339D01*
X754437Y60904D01*
X754679Y60464D01*
X754911Y60017D01*
X755132Y59565D01*
X755341Y59107D01*
X755540Y58645D01*
X755726Y58178D01*
X755902Y57706D01*
X756065Y57230D01*
X756217Y56751D01*
X756357Y56268D01*
X756486Y55781D01*
X756602Y55292D01*
X756706Y54799D01*
X756798Y54305D01*
X756878Y53808D01*
X756946Y53309D01*
X757001Y52809D01*
X757044Y52308D01*
X757075Y51806D01*
X757094Y51303D01*
X757100Y50800D01*
X757094Y50297D01*
X757075Y49794D01*
X757044Y49292D01*
X757001Y48791D01*
X756946Y48291D01*
X756878Y47792D01*
X756798Y47295D01*
X756706Y46801D01*
X756602Y46308D01*
X756486Y45819D01*
X756357Y45332D01*
X756217Y44849D01*
X756065Y44370D01*
X755902Y43894D01*
X755726Y43422D01*
X755540Y42955D01*
X755341Y42493D01*
X755132Y42035D01*
X754911Y41583D01*
X754679Y41136D01*
X754437Y40696D01*
X754183Y40261D01*
X753919Y39833D01*
X753645Y39411D01*
X753360Y38996D01*
X753066Y38588D01*
X752761Y38188D01*
X752447Y37795D01*
X752123Y37410D01*
X751789Y37033D01*
X751447Y36664D01*
X751096Y36304D01*
X750736Y35953D01*
X750367Y35611D01*
X749990Y35277D01*
X749605Y34953D01*
X749212Y34639D01*
X748812Y34334D01*
X748404Y34040D01*
X747989Y33755D01*
X747567Y33481D01*
X747139Y33217D01*
X746704Y32963D01*
X746264Y32721D01*
X745817Y32489D01*
X745365Y32268D01*
X744907Y32059D01*
X744445Y31860D01*
X743978Y31674D01*
X743506Y31498D01*
X743030Y31335D01*
X742551Y31183D01*
X742068Y31043D01*
X741581Y30914D01*
X741092Y30798D01*
X740599Y30694D01*
X740105Y30602D01*
X739608Y30522D01*
X739109Y30454D01*
X738609Y30399D01*
X738108Y30356D01*
X737606Y30325D01*
X737103Y30306D01*
X736600Y30300D01*
X736097Y30306D01*
X735594Y30325D01*
X735092Y30356D01*
X734591Y30399D01*
X734091Y30454D01*
X733592Y30522D01*
X733095Y30602D01*
X732601Y30694D01*
X732108Y30798D01*
X731619Y30914D01*
X731132Y31043D01*
X730649Y31183D01*
X730170Y31335D01*
X729694Y31498D01*
X729222Y31674D01*
X728755Y31860D01*
X728293Y32059D01*
X727835Y32268D01*
X727383Y32489D01*
X726936Y32721D01*
X726496Y32963D01*
X726061Y33217D01*
X725633Y33481D01*
X725211Y33755D01*
X724796Y34040D01*
X724388Y34334D01*
X723988Y34639D01*
X723595Y34953D01*
X723210Y35277D01*
X722833Y35611D01*
X722464Y35953D01*
X722104Y36304D01*
X721753Y36664D01*
X721411Y37033D01*
X721077Y37410D01*
X720753Y37795D01*
X720439Y38188D01*
X720134Y38588D01*
X719840Y38996D01*
X719555Y39411D01*
X719281Y39833D01*
X719017Y40261D01*
X718763Y40696D01*
X718521Y41136D01*
X718289Y41583D01*
X718068Y42035D01*
X717859Y42493D01*
X717660Y42955D01*
X717474Y43422D01*
X717298Y43894D01*
X717135Y44370D01*
X716983Y44849D01*
X716843Y45332D01*
X716714Y45819D01*
X716598Y46308D01*
X716494Y46801D01*
X716402Y47295D01*
X716322Y47792D01*
X716254Y48291D01*
X716199Y48791D01*
X716156Y49292D01*
X716125Y49794D01*
X716106Y50297D01*
X716100Y50800D01*
X716100Y558800D02*
X716106Y559303D01*
X716125Y559806D01*
X716156Y560308D01*
X716199Y560809D01*
X716254Y561309D01*
X716322Y561808D01*
X716402Y562305D01*
X716494Y562799D01*
X716598Y563292D01*
X716714Y563781D01*
X716843Y564268D01*
X716983Y564751D01*
X717135Y565230D01*
X717298Y565706D01*
X717474Y566178D01*
X717660Y566645D01*
X717859Y567107D01*
X718068Y567565D01*
X718289Y568017D01*
X718521Y568464D01*
X718763Y568904D01*
X719017Y569339D01*
X719281Y569767D01*
X719555Y570189D01*
X719840Y570604D01*
X720134Y571012D01*
X720439Y571412D01*
X720753Y571805D01*
X721077Y572190D01*
X721411Y572567D01*
X721753Y572936D01*
X722104Y573296D01*
X722464Y573647D01*
X722833Y573989D01*
X723210Y574323D01*
X723595Y574647D01*
X723988Y574961D01*
X724388Y575266D01*
X724796Y575560D01*
X725211Y575845D01*
X725633Y576119D01*
X726061Y576383D01*
X726496Y576637D01*
X726936Y576879D01*
X727383Y577111D01*
X727835Y577332D01*
X728293Y577541D01*
X728755Y577740D01*
X729222Y577926D01*
X729694Y578102D01*
X730170Y578265D01*
X730649Y578417D01*
X731132Y578557D01*
X731619Y578686D01*
X732108Y578802D01*
X732601Y578906D01*
X733095Y578998D01*
X733592Y579078D01*
X734091Y579146D01*
X734591Y579201D01*
X735092Y579244D01*
X735594Y579275D01*
X736097Y579294D01*
X736600Y579300D01*
X737103Y579294D01*
X737606Y579275D01*
X738108Y579244D01*
X738609Y579201D01*
X739109Y579146D01*
X739608Y579078D01*
X740105Y578998D01*
X740599Y578906D01*
X741092Y578802D01*
X741581Y578686D01*
X742068Y578557D01*
X742551Y578417D01*
X743030Y578265D01*
X743506Y578102D01*
X743978Y577926D01*
X744445Y577740D01*
X744907Y577541D01*
X745365Y577332D01*
X745817Y577111D01*
X746264Y576879D01*
X746704Y576637D01*
X747139Y576383D01*
X747567Y576119D01*
X747989Y575845D01*
X748404Y575560D01*
X748812Y575266D01*
X749212Y574961D01*
X749605Y574647D01*
X749990Y574323D01*
X750367Y573989D01*
X750736Y573647D01*
X751096Y573296D01*
X751447Y572936D01*
X751789Y572567D01*
X752123Y572190D01*
X752447Y571805D01*
X752761Y571412D01*
X753066Y571012D01*
X753360Y570604D01*
X753645Y570189D01*
X753919Y569767D01*
X754183Y569339D01*
X754437Y568904D01*
X754679Y568464D01*
X754911Y568017D01*
X755132Y567565D01*
X755341Y567107D01*
X755540Y566645D01*
X755726Y566178D01*
X755902Y565706D01*
X756065Y565230D01*
X756217Y564751D01*
X756357Y564268D01*
X756486Y563781D01*
X756602Y563292D01*
X756706Y562799D01*
X756798Y562305D01*
X756878Y561808D01*
X756946Y561309D01*
X757001Y560809D01*
X757044Y560308D01*
X757075Y559806D01*
X757094Y559303D01*
X757100Y558800D01*
X757094Y558297D01*
X757075Y557794D01*
X757044Y557292D01*
X757001Y556791D01*
X756946Y556291D01*
X756878Y555792D01*
X756798Y555295D01*
X756706Y554801D01*
X756602Y554308D01*
X756486Y553819D01*
X756357Y553332D01*
X756217Y552849D01*
X756065Y552370D01*
X755902Y551894D01*
X755726Y551422D01*
X755540Y550955D01*
X755341Y550493D01*
X755132Y550035D01*
X754911Y549583D01*
X754679Y549136D01*
X754437Y548696D01*
X754183Y548261D01*
X753919Y547833D01*
X753645Y547411D01*
X753360Y546996D01*
X753066Y546588D01*
X752761Y546188D01*
X752447Y545795D01*
X752123Y545410D01*
X751789Y545033D01*
X751447Y544664D01*
X751096Y544304D01*
X750736Y543953D01*
X750367Y543611D01*
X749990Y543277D01*
X749605Y542953D01*
X749212Y542639D01*
X748812Y542334D01*
X748404Y542040D01*
X747989Y541755D01*
X747567Y541481D01*
X747139Y541217D01*
X746704Y540963D01*
X746264Y540721D01*
X745817Y540489D01*
X745365Y540268D01*
X744907Y540059D01*
X744445Y539860D01*
X743978Y539674D01*
X743506Y539498D01*
X743030Y539335D01*
X742551Y539183D01*
X742068Y539043D01*
X741581Y538914D01*
X741092Y538798D01*
X740599Y538694D01*
X740105Y538602D01*
X739608Y538522D01*
X739109Y538454D01*
X738609Y538399D01*
X738108Y538356D01*
X737606Y538325D01*
X737103Y538306D01*
X736600Y538300D01*
X736097Y538306D01*
X735594Y538325D01*
X735092Y538356D01*
X734591Y538399D01*
X734091Y538454D01*
X733592Y538522D01*
X733095Y538602D01*
X732601Y538694D01*
X732108Y538798D01*
X731619Y538914D01*
X731132Y539043D01*
X730649Y539183D01*
X730170Y539335D01*
X729694Y539498D01*
X729222Y539674D01*
X728755Y539860D01*
X728293Y540059D01*
X727835Y540268D01*
X727383Y540489D01*
X726936Y540721D01*
X726496Y540963D01*
X726061Y541217D01*
X725633Y541481D01*
X725211Y541755D01*
X724796Y542040D01*
X724388Y542334D01*
X723988Y542639D01*
X723595Y542953D01*
X723210Y543277D01*
X722833Y543611D01*
X722464Y543953D01*
X722104Y544304D01*
X721753Y544664D01*
X721411Y545033D01*
X721077Y545410D01*
X720753Y545795D01*
X720439Y546188D01*
X720134Y546588D01*
X719840Y546996D01*
X719555Y547411D01*
X719281Y547833D01*
X719017Y548261D01*
X718763Y548696D01*
X718521Y549136D01*
X718289Y549583D01*
X718068Y550035D01*
X717859Y550493D01*
X717660Y550955D01*
X717474Y551422D01*
X717298Y551894D01*
X717135Y552370D01*
X716983Y552849D01*
X716843Y553332D01*
X716714Y553819D01*
X716598Y554308D01*
X716494Y554801D01*
X716402Y555295D01*
X716322Y555792D01*
X716254Y556291D01*
X716199Y556791D01*
X716156Y557292D01*
X716125Y557794D01*
X716106Y558297D01*
X716100Y558800D01*
D11*
X0Y0D02*
X787400Y0D01*
X787400Y609600D01*
X0Y609600D01*
X0Y0D01*
X71300Y558181D02*
X71225Y556944D01*
X71076Y555714D01*
X70853Y554495D01*
X70556Y553293D01*
X70188Y552110D01*
X69748Y550951D01*
X69240Y549822D01*
X68664Y548725D01*
X68023Y547664D01*
X67319Y546645D01*
X66555Y545670D01*
X65734Y544742D01*
X64858Y543866D01*
X63930Y543045D01*
X62955Y542281D01*
X61936Y541577D01*
X60875Y540936D01*
X59778Y540360D01*
X58649Y539852D01*
X57490Y539413D01*
X56307Y539044D01*
X55105Y538747D01*
X53886Y538524D01*
X52656Y538375D01*
X51419Y538300D01*
X50181Y538300D01*
X48944Y538375D01*
X47714Y538524D01*
X46495Y538747D01*
X45293Y539044D01*
X44110Y539413D01*
X42951Y539852D01*
X41822Y540360D01*
X40725Y540936D01*
X39664Y541577D01*
X38645Y542281D01*
X37670Y543045D01*
X36742Y543866D01*
X35866Y544742D01*
X35045Y545670D01*
X34281Y546645D01*
X33577Y547664D01*
X32936Y548725D01*
X32360Y549822D01*
X31852Y550951D01*
X31413Y552110D01*
X31044Y553293D01*
X30747Y554495D01*
X30524Y555714D01*
X30375Y556944D01*
X30300Y558181D01*
X30300Y559419D01*
X30375Y560656D01*
X30524Y561886D01*
X30747Y563105D01*
X31044Y564307D01*
X31413Y565490D01*
X31852Y566649D01*
X32360Y567778D01*
X32936Y568875D01*
X33577Y569936D01*
X34281Y570955D01*
X35045Y571930D01*
X35866Y572858D01*
X36742Y573734D01*
X37670Y574555D01*
X38645Y575319D01*
X39664Y576023D01*
X40725Y576664D01*
X41822Y577240D01*
X42951Y577748D01*
X44110Y578188D01*
X45293Y578556D01*
X46495Y578853D01*
X47714Y579076D01*
X48944Y579225D01*
X50181Y579300D01*
X51419Y579300D01*
X52656Y579225D01*
X53886Y579076D01*
X55105Y578853D01*
X56307Y578556D01*
X57490Y578188D01*
X58649Y577748D01*
X59778Y577240D01*
X60875Y576664D01*
X61936Y576023D01*
X62955Y575319D01*
X63930Y574555D01*
X64858Y573734D01*
X65734Y572858D01*
X66555Y571930D01*
X67319Y570955D01*
X68023Y569936D01*
X68664Y568875D01*
X69240Y567778D01*
X69748Y566649D01*
X70188Y565490D01*
X70556Y564307D01*
X70853Y563105D01*
X71076Y561886D01*
X71225Y560656D01*
X71300Y559419D01*
X71300Y558181D01*
X71300Y50181D02*
X71225Y48944D01*
X71076Y47714D01*
X70853Y46495D01*
X70556Y45293D01*
X70188Y44110D01*
X69748Y42951D01*
X69240Y41822D01*
X68664Y40725D01*
X68023Y39664D01*
X67319Y38645D01*
X66555Y37670D01*
X65734Y36742D01*
X64858Y35866D01*
X63930Y35045D01*
X62955Y34281D01*
X61936Y33577D01*
X60875Y32936D01*
X59778Y32360D01*
X58649Y31852D01*
X57490Y31413D01*
X56307Y31044D01*
X55105Y30747D01*
X53886Y30524D01*
X52656Y30375D01*
X51419Y30300D01*
X50181Y30300D01*
X48944Y30375D01*
X47714Y30524D01*
X46495Y30747D01*
X45293Y31044D01*
X44110Y31413D01*
X42951Y31852D01*
X41822Y32360D01*
X40725Y32936D01*
X39664Y33577D01*
X38645Y34281D01*
X37670Y35045D01*
X36742Y35866D01*
X35866Y36742D01*
X35045Y37670D01*
X34281Y38645D01*
X33577Y39664D01*
X32936Y40725D01*
X32360Y41822D01*
X31852Y42951D01*
X31413Y44110D01*
X31044Y45293D01*
X30747Y46495D01*
X30524Y47714D01*
X30375Y48944D01*
X30300Y50181D01*
X30300Y51419D01*
X30375Y52656D01*
X30524Y53886D01*
X30747Y55105D01*
X31044Y56307D01*
X31413Y57490D01*
X31852Y58649D01*
X32360Y59778D01*
X32936Y60875D01*
X33577Y61936D01*
X34281Y62955D01*
X35045Y63930D01*
X35866Y64858D01*
X36742Y65734D01*
X37670Y66555D01*
X38645Y67319D01*
X39664Y68023D01*
X40725Y68664D01*
X41822Y69240D01*
X42951Y69748D01*
X44110Y70188D01*
X45293Y70556D01*
X46495Y70853D01*
X47714Y71076D01*
X48944Y71225D01*
X50181Y71300D01*
X51419Y71300D01*
X52656Y71225D01*
X53886Y71076D01*
X55105Y70853D01*
X56307Y70556D01*
X57490Y70188D01*
X58649Y69748D01*
X59778Y69240D01*
X60875Y68664D01*
X61936Y68023D01*
X62955Y67319D01*
X63930Y66555D01*
X64858Y65734D01*
X65734Y64858D01*
X66555Y63930D01*
X67319Y62955D01*
X68023Y61936D01*
X68664Y60875D01*
X69240Y59778D01*
X69748Y58649D01*
X70188Y57490D01*
X70556Y56307D01*
X70853Y55105D01*
X71076Y53886D01*
X71225Y52656D01*
X71300Y51419D01*
X71300Y50181D01*
X757100Y50181D02*
X757025Y48944D01*
X756876Y47714D01*
X756653Y46495D01*
X756356Y45293D01*
X755988Y44110D01*
X755548Y42951D01*
X755040Y41822D01*
X754464Y40725D01*
X753823Y39664D01*
X753119Y38645D01*
X752355Y37670D01*
X751534Y36742D01*
X750658Y35866D01*
X749730Y35045D01*
X748755Y34281D01*
X747736Y33577D01*
X746675Y32936D01*
X745578Y32360D01*
X744449Y31852D01*
X743290Y31413D01*
X742107Y31044D01*
X740905Y30747D01*
X739686Y30524D01*
X738456Y30375D01*
X737219Y30300D01*
X735981Y30300D01*
X734744Y30375D01*
X733514Y30524D01*
X732295Y30747D01*
X731093Y31044D01*
X729910Y31413D01*
X728751Y31852D01*
X727622Y32360D01*
X726525Y32936D01*
X725464Y33577D01*
X724445Y34281D01*
X723470Y35045D01*
X722542Y35866D01*
X721666Y36742D01*
X720845Y37670D01*
X720081Y38645D01*
X719377Y39664D01*
X718736Y40725D01*
X718160Y41822D01*
X717652Y42951D01*
X717213Y44110D01*
X716844Y45293D01*
X716547Y46495D01*
X716324Y47714D01*
X716175Y48944D01*
X716100Y50181D01*
X716100Y51419D01*
X716175Y52656D01*
X716324Y53886D01*
X716547Y55105D01*
X716844Y56307D01*
X717213Y57490D01*
X717652Y58649D01*
X718160Y59778D01*
X718736Y60875D01*
X719377Y61936D01*
X720081Y62955D01*
X720845Y63930D01*
X721666Y64858D01*
X722542Y65734D01*
X723470Y66555D01*
X724445Y67319D01*
X725464Y68023D01*
X726525Y68664D01*
X727622Y69240D01*
X728751Y69748D01*
X729910Y70188D01*
X731093Y70556D01*
X732295Y70853D01*
X733514Y71076D01*
X734744Y71225D01*
X735981Y71300D01*
X737219Y71300D01*
X738456Y71225D01*
X739686Y71076D01*
X740905Y70853D01*
X742107Y70556D01*
X743290Y70188D01*
X744449Y69748D01*
X745578Y69240D01*
X746675Y68664D01*
X747736Y68023D01*
X748755Y67319D01*
X749730Y66555D01*
X750658Y65734D01*
X751534Y64858D01*
X752355Y63930D01*
X753119Y62955D01*
X753823Y61936D01*
X754464Y60875D01*
X755040Y59778D01*
X755548Y58649D01*
X755988Y57490D01*
X756356Y56307D01*
X756653Y55105D01*
X756876Y53886D01*
X757025Y52656D01*
X757100Y51419D01*
X757100Y50181D01*
X757100Y558181D02*
X757025Y556944D01*
X756876Y555714D01*
X756653Y554495D01*
X756356Y553293D01*
X755988Y552110D01*
X755548Y550951D01*
X755040Y549822D01*
X754464Y548725D01*
X753823Y547664D01*
X753119Y546645D01*
X752355Y545670D01*
X751534Y544742D01*
X750658Y543866D01*
X749730Y543045D01*
X748755Y542281D01*
X747736Y541577D01*
X746675Y540936D01*
X745578Y540360D01*
X744449Y539852D01*
X743290Y539413D01*
X742107Y539044D01*
X740905Y538747D01*
X739686Y538524D01*
X738456Y538375D01*
X737219Y538300D01*
X735981Y538300D01*
X734744Y538375D01*
X733514Y538524D01*
X732295Y538747D01*
X731093Y539044D01*
X729910Y539413D01*
X728751Y539852D01*
X727622Y540360D01*
X726525Y540936D01*
X725464Y541577D01*
X724445Y542281D01*
X723470Y543045D01*
X722542Y543866D01*
X721666Y544742D01*
X720845Y545670D01*
X720081Y546645D01*
X719377Y547664D01*
X718736Y548725D01*
X718160Y549822D01*
X717652Y550951D01*
X717213Y552110D01*
X716844Y553293D01*
X716547Y554495D01*
X716324Y555714D01*
X716175Y556944D01*
X716100Y558181D01*
X716100Y559419D01*
X716175Y560656D01*
X716324Y561886D01*
X716547Y563105D01*
X716844Y564307D01*
X717213Y565490D01*
X717652Y566649D01*
X718160Y567778D01*
X718736Y568875D01*
X719377Y569936D01*
X720081Y570955D01*
X720845Y571930D01*
X721666Y572858D01*
X722542Y573734D01*
X723470Y574555D01*
X724445Y575319D01*
X725464Y576023D01*
X726525Y576664D01*
X727622Y577240D01*
X728751Y577748D01*
X729910Y578188D01*
X731093Y578556D01*
X732295Y578853D01*
X733514Y579076D01*
X734744Y579225D01*
X735981Y579300D01*
X737219Y579300D01*
X738456Y579225D01*
X739686Y579076D01*
X740905Y578853D01*
X742107Y578556D01*
X743290Y578188D01*
X744449Y577748D01*
X745578Y577240D01*
X746675Y576664D01*
X747736Y576023D01*
X748755Y575319D01*
X749730Y574555D01*
X750658Y573734D01*
X751534Y572858D01*
X752355Y571930D01*
X753119Y570955D01*
X753823Y569936D01*
X754464Y568875D01*
X755040Y567778D01*
X755548Y566649D01*
X755988Y565490D01*
X756356Y564307D01*
X756653Y563105D01*
X756876Y561886D01*
X757025Y560656D01*
X757100Y559419D01*
X757100Y558181D01*
M02*
