M48
;GenerationSoftware,Autodesk,EAGLE,9.4.0*%
;CreationDate,2019-05-27T03:12:52Z*%
FMAT,2
ICI,OFF
METRIC,TZ,000.000
T7C0.350
T6C0.500
T5C0.889
T4C1.200
T3C1.300
T2C4.100
%
G90
M71
T2
X5080Y55880
X5080Y5080
X73660Y5080
X73660Y55880
T3
X73635Y20299
X73635Y25379
X73635Y15219
X58420Y3330
X64420Y17530
X64420Y5330
X52420Y17530
X52420Y5330
T4
X16510Y57150
X19050Y57150
X31750Y57150
X34290Y57150
X36830Y57150
X61087Y57150
X75565Y35560
X75565Y38100
X75565Y33020
X58547Y57150
X75565Y45720
X75565Y43180
X75565Y40640
T5
X3048Y20320
X3048Y17780
X3048Y15240
X3048Y12700
X27940Y29210
X30480Y29210
X33020Y29210
X33020Y31750
X30480Y31750
X25400Y3048
X22860Y3048
X20320Y3048
X17780Y3048
X15240Y3048
X12700Y3048
X27940Y31750
X3048Y25400
X3048Y22860
X3048Y27940
X3048Y30480
X3048Y35560
X3048Y38100
X3048Y40640
T6
X63246Y29718
X68834Y48641
X68326Y10668
X43815Y14224
X43561Y29972
X43180Y57912
X6096Y45974
X47498Y21717
X53721Y41529
X39116Y37211
X22352Y37211
X54991Y50038
X51435Y51054
X8128Y37211
X50038Y43688
X17907Y35560
X12954Y35560
X6223Y35560
X18034Y14986
X60198Y34544
X57277Y34544
X31877Y53594
X44323Y42672
X8128Y14986
T7
X55880Y33020
X29210Y49657
X14478Y13843
X17780Y39497
X15570Y26543
X21844Y19812
X14097Y19939
X19050Y27178
X17196Y18593
X18491Y17729
X17831Y17069
X19685Y5207
X16764Y20447
X20701Y48133
X21336Y51181
X20066Y48895
X20574Y53213
X58547Y33020
X28575Y48133
X27178Y48387
X18542Y51054
X15748Y38989
X24384Y25019
X24257Y23749
X25527Y22479
X26416Y21209
X42926Y8382
X25781Y18542
X22479Y16459
X5334Y16764
X20193Y47244
X20193Y45847
M30